<svg width="800" height="400" viewBox="0 0 800 400" fill="none" xmlns="http://www.w3.org/2000/svg">
  <rect width="800" height="400" fill="#f8fafc"/>
  <rect x="50" y="50" width="700" height="300" rx="24" fill="white" stroke="#e2e8f0"/>
  <rect x="80" y="80" width="280" height="240" rx="16" fill="#f8fafc"/>
  <rect x="100" y="100" width="120" height="12" rx="6" fill="#6366f1"/>
  <rect x="100" y="130" width="240" height="8" rx="4" fill="#94a3b8" opacity="0.4"/>
  <rect x="100" y="150" width="220" height="8" rx="4" fill="#94a3b8" opacity="0.4"/>
  <rect x="100" y="170" width="200" height="8" rx="4" fill="#94a3b8" opacity="0.4"/>
  <rect x="100" y="210" width="240" height="80" rx="8" fill="white" stroke="#e2e8f0"/>
  <path d="M140 250 L180 230 L220 260 L260 220 L300 250" stroke="#6366f1" stroke-width="2" fill="none"/>
  <circle cx="140" cy="250" r="4" fill="#6366f1"/>
  <circle cx="180" cy="230" r="4" fill="#6366f1"/>
  <circle cx="220" cy="260" r="4" fill="#6366f1"/>
  <circle cx="260" cy="220" r="4" fill="#6366f1"/>
  <circle cx="300" cy="250" r="4" fill="#6366f1"/>
  <rect x="400" y="80" width="320" height="240" rx="16" fill="#6366f1" opacity="0.05" stroke="#6366f1" stroke-width="2"/>
  <rect x="430" y="110" width="160" height="14" rx="7" fill="#6366f1"/>
  <rect x="430" y="145" width="260" height="8" rx="4" fill="#64748b" opacity="0.4"/>
  <rect x="430" y="165" width="240" height="8" rx="4" fill="#64748b" opacity="0.4"/>
  <rect x="430" y="185" width="220" height="8" rx="4" fill="#64748b" opacity="0.4"/>
  <rect x="430" y="220" width="120" height="36" rx="8" fill="#6366f1"/>
  <rect x="430" y="270" width="260" height="30" rx="6" fill="white" stroke="#22c55e" stroke-width="2"/>
  <circle cx="450" cy="285" r="8" fill="#22c55e"/>
  <path d="M446 285 L449 288 L455 282" stroke="white" stroke-width="2" stroke-linecap="round"/>
  <rect x="470" y="278" width="100" height="6" rx="3" fill="#22c55e" opacity="0.6"/>
</svg>