<svg width="800" height="400" viewBox="0 0 800 400" fill="none" xmlns="http://www.w3.org/2000/svg">
  <rect width="800" height="400" fill="#f8fafc"/>
  <rect x="100" y="50" width="200" height="140" rx="16" fill="white" stroke="#6366f1" stroke-width="2"/>
  <rect x="130" y="80" width="80" height="10" rx="5" fill="#6366f1"/>
  <rect x="130" y="105" width="140" height="6" rx="3" fill="#94a3b8" opacity="0.4"/>
  <rect x="130" y="120" width="120" height="6" rx="3" fill="#94a3b8" opacity="0.4"/>
  <rect x="130" y="150" width="60" height="20" rx="4" fill="#6366f1"/>
  <rect x="350" y="50" width="200" height="140" rx="16" fill="white" stroke="#8b5cf6" stroke-width="2"/>
  <rect x="380" y="80" width="80" height="10" rx="5" fill="#8b5cf6"/>
  <rect x="380" y="105" width="140" height="6" rx="3" fill="#94a3b8" opacity="0.4"/>
  <rect x="380" y="120" width="120" height="6" rx="3" fill="#94a3b8" opacity="0.4"/>
  <rect x="380" y="150" width="60" height="20" rx="4" fill="#8b5cf6"/>
  <rect x="100" y="210" width="450" height="140" rx="16" fill="white" stroke="#22c55e" stroke-width="2"/>
  <rect x="140" y="240" width="200" height="14" rx="7" fill="#22c55e"/>
  <rect x="140" y="270" width="370" height="8" rx="4" fill="#94a3b8" opacity="0.4"/>
  <rect x="140" y="290" width="350" height="8" rx="4" fill="#94a3b8" opacity="0.4"/>
  <rect x="140" y="315" width="100" height="25" rx="6" fill="#22c55e"/>
  <circle cx="650" cy="200" r="80" fill="#6366f1" opacity="0.08"/>
  <circle cx="650" cy="200" r="50" fill="#8b5cf6" opacity="0.1"/>
  <circle cx="650" cy="200" r="25" fill="#6366f1"/>
</svg>