<svg width="800" height="400" viewBox="0 0 800 400" fill="none" xmlns="http://www.w3.org/2000/svg">
  <rect width="800" height="400" fill="#f8fafc"/>
  <path d="M0 300 Q200 250 400 300 T800 280" stroke="#6366f1" stroke-width="2" fill="none" opacity="0.1"/>
  <path d="M0 320 Q200 270 400 320 T800 300" stroke="#8b5cf6" stroke-width="2" fill="none" opacity="0.08"/>
  <rect x="100" y="80" width="350" height="220" rx="20" fill="white" stroke="#6366f1" stroke-width="2"/>
  <rect x="140" y="120" width="200" height="14" rx="7" fill="#6366f1"/>
  <rect x="140" y="150" width="270" height="8" rx="4" fill="#94a3b8" opacity="0.4"/>
  <rect x="140" y="170" width="250" height="8" rx="4" fill="#94a3b8" opacity="0.4"/>
  <rect x="140" y="210" width="270" height="60" rx="8" fill="#f8fafc"/>
  <path d="M160 250 L200 230 L240 245 L280 220 L320 240 L360 225 L390 235" stroke="#6366f1" stroke-width="2" fill="none"/>
  <circle cx="600" cy="180" r="100" fill="#6366f1" opacity="0.08"/>
  <circle cx="600" cy="180" r="60" fill="#8b5cf6" opacity="0.1"/>
  <circle cx="600" cy="180" r="30" fill="#6366f1"/>
  <path d="M590 180 L600 190 L615 170" stroke="white" stroke-width="3" stroke-linecap="round"/>
</svg>