<svg width="800" height="400" viewBox="0 0 800 400" fill="none" xmlns="http://www.w3.org/2000/svg">
  <rect width="800" height="400" fill="#f0f9ff"/>
  <path d="M0 350 C200 300 600 380 800 320" stroke="#0ea5e9" stroke-width="3" fill="none" opacity="0.1"/>
  <path d="M0 370 C200 320 600 400 800 340" stroke="#6366f1" stroke-width="2" fill="none" opacity="0.08"/>
  <rect x="80" y="80" width="640" height="220" rx="20" fill="white" stroke="#0ea5e9" stroke-width="2"/>
  <rect x="130" y="120" width="200" height="14" rx="7" fill="#0ea5e9"/>
  <rect x="130" y="150" width="540" height="8" rx="4" fill="#94a3b8" opacity="0.4"/>
  <rect x="130" y="170" width="500" height="8" rx="4" fill="#94a3b8" opacity="0.4"/>
  <rect x="130" y="210" width="260" height="60" rx="10" fill="#f0f9ff"/>
  <path d="M160 250 L200 230 L240 245 L280 220 L320 240 L360 225" stroke="#0ea5e9" stroke-width="2" fill="none"/>
  <circle cx="160" cy="250" r="4" fill="#0ea5e9"/>
  <circle cx="200" cy="230" r="4" fill="#0ea5e9"/>
  <circle cx="240" cy="245" r="4" fill="#0ea5e9"/>
  <circle cx="280" cy="220" r="4" fill="#0ea5e9"/>
  <circle cx="320" cy="240" r="4" fill="#0ea5e9"/>
  <circle cx="360" cy="225" r="4" fill="#0ea5e9"/>
  <rect x="420" y="210" width="260" height="60" rx="10" fill="#f8fafc"/>
  <rect x="450" y="225" width="80" height="30" rx="6" fill="#0ea5e9"/>
  <rect x="550" y="225" width="80" height="30" rx="6" fill="white" stroke="#0ea5e9" stroke-width="2"/>
</svg>