<svg width="800" height="400" viewBox="0 0 800 400" fill="none" xmlns="http://www.w3.org/2000/svg">
  <rect width="800" height="400" fill="#f8fafc"/>
  <rect x="50" y="100" width="320" height="200" rx="16" fill="white" stroke="#6366f1" stroke-width="2"/>
  <rect x="80" y="130" width="140" height="12" rx="6" fill="#6366f1"/>
  <rect x="80" y="158" width="260" height="8" rx="4" fill="#94a3b8" opacity="0.4"/>
  <rect x="80" y="178" width="240" height="8" rx="4" fill="#94a3b8" opacity="0.4"/>
  <rect x="80" y="210" width="260" height="60" rx="8" fill="#6366f1" opacity="0.05"/>
  <rect x="430" y="100" width="320" height="200" rx="16" fill="white" stroke="#8b5cf6" stroke-width="2"/>
  <rect x="460" y="130" width="140" height="12" rx="6" fill="#8b5cf6"/>
  <rect x="460" y="158" width="260" height="8" rx="4" fill="#94a3b8" opacity="0.4"/>
  <rect x="460" y="178" width="240" height="8" rx="4" fill="#94a3b8" opacity="0.4"/>
  <rect x="460" y="210" width="260" height="60" rx="8" fill="#8b5cf6" opacity="0.05"/>
  <path d="M380 200 L410 200" stroke="#6366f1" stroke-width="3" stroke-linecap="round" stroke-dasharray="6 4"/>
  <circle cx="400" cy="200" r="15" fill="#6366f1"/>
  <path d="M395 200 L400 205 L408 195" stroke="white" stroke-width="2" stroke-linecap="round"/>
</svg>