<svg width="800" height="400" viewBox="0 0 800 400" fill="none" xmlns="http://www.w3.org/2000/svg">
  <rect width="800" height="400" fill="#fefce8"/>
  <circle cx="100" cy="100" r="200" fill="#eab308" opacity="0.05"/>
  <circle cx="700" cy="300" r="180" fill="#6366f1" opacity="0.04"/>
  <rect x="150" y="50" width="500" height="300" rx="24" fill="white" stroke="#eab308" stroke-width="2"/>
  <rect x="200" y="90" width="250" height="16" rx="8" fill="#eab308"/>
  <rect x="200" y="125" width="400" height="8" rx="4" fill="#94a3b8" opacity="0.4"/>
  <rect x="200" y="145" width="380" height="8" rx="4" fill="#94a3b8" opacity="0.4"/>
  <rect x="200" y="180" width="180" height="140" rx="12" fill="#fefce8"/>
  <path d="M240 280 L280 240 L320 260 L360 220" stroke="#eab308" stroke-width="3" fill="none" stroke-linecap="round"/>
  <circle cx="240" cy="280" r="5" fill="#eab308"/>
  <circle cx="280" cy="240" r="5" fill="#eab308"/>
  <circle cx="320" cy="260" r="5" fill="#eab308"/>
  <circle cx="360" cy="220" r="5" fill="#eab308"/>
  <rect x="420" y="180" width="180" height="140" rx="12" fill="#f8fafc"/>
  <rect x="450" y="210" width="120" height="10" rx="5" fill="#6366f1"/>
  <rect x="450" y="235" width="100" height="6" rx="3" fill="#94a3b8" opacity="0.4"/>
  <rect x="450" y="255" width="110" height="6" rx="3" fill="#94a3b8" opacity="0.4"/>
  <rect x="450" y="285" width="80" height="24" rx="6" fill="#6366f1"/>
</svg>