<svg width="800" height="400" viewBox="0 0 800 400" fill="none" xmlns="http://www.w3.org/2000/svg">
  <rect width="800" height="400" fill="#fffbeb"/>
  <circle cx="700" cy="80" r="140" fill="#f59e0b" opacity="0.08"/>
  <circle cx="100" cy="350" r="100" fill="#6366f1" opacity="0.05"/>
  <rect x="80" y="80" width="640" height="240" rx="20" fill="white" stroke="#e2e8f0"/>
  <rect x="120" y="120" width="180" height="160" rx="12" fill="#fffbeb" stroke="#f59e0b" stroke-width="2"/>
  <circle cx="210" cy="180" r="30" fill="#f59e0b" opacity="0.2"/>
  <path d="M200 180 L210 190 L225 170" stroke="#f59e0b" stroke-width="3" stroke-linecap="round"/>
  <rect x="140" y="230" width="120" height="30" rx="6" fill="#f59e0b"/>
  <rect x="330" y="120" width="180" height="160" rx="12" fill="#f8fafc" stroke="#6366f1" stroke-width="2"/>
  <circle cx="420" cy="180" r="30" fill="#6366f1" opacity="0.2"/>
  <rect x="405" y="165" width="30" height="30" rx="4" stroke="#6366f1" stroke-width="2" fill="none"/>
  <rect x="350" y="230" width="120" height="30" rx="6" fill="#6366f1"/>
  <rect x="540" y="120" width="160" height="160" rx="12" fill="#f0fdf4" stroke="#22c55e" stroke-width="2"/>
  <circle cx="620" cy="180" r="30" fill="#22c55e" opacity="0.2"/>
  <path d="M608 180 L618 195 L635 165" stroke="#22c55e" stroke-width="3" stroke-linecap="round"/>
  <rect x="555" y="230" width="120" height="30" rx="6" fill="#22c55e"/>
</svg>