<svg width="800" height="400" viewBox="0 0 800 400" fill="none" xmlns="http://www.w3.org/2000/svg">
  <rect width="800" height="400" fill="#f8fafc"/>
  <circle cx="400" cy="200" r="180" stroke="#6366f1" stroke-width="1" stroke-dasharray="10 5" fill="none" opacity="0.2"/>
  <circle cx="400" cy="200" r="120" stroke="#8b5cf6" stroke-width="1" stroke-dasharray="8 4" fill="none" opacity="0.3"/>
  <circle cx="400" cy="200" r="60" fill="#6366f1" opacity="0.1"/>
  <circle cx="400" cy="200" r="30" fill="#6366f1"/>
  <circle cx="280" cy="120" r="40" fill="white" stroke="#6366f1" stroke-width="2"/>
  <rect x="265" y="110" width="30" height="6" rx="3" fill="#6366f1"/>
  <rect x="260" y="122" width="40" height="4" rx="2" fill="#94a3b8" opacity="0.5"/>
  <circle cx="520" cy="120" r="40" fill="white" stroke="#8b5cf6" stroke-width="2"/>
  <rect x="505" y="110" width="30" height="6" rx="3" fill="#8b5cf6"/>
  <rect x="500" y="122" width="40" height="4" rx="2" fill="#94a3b8" opacity="0.5"/>
  <circle cx="280" cy="280" r="40" fill="white" stroke="#a855f7" stroke-width="2"/>
  <rect x="265" y="270" width="30" height="6" rx="3" fill="#a855f7"/>
  <rect x="260" y="282" width="40" height="4" rx="2" fill="#94a3b8" opacity="0.5"/>
  <circle cx="520" cy="280" r="40" fill="white" stroke="#22c55e" stroke-width="2"/>
  <rect x="505" y="270" width="30" height="6" rx="3" fill="#22c55e"/>
  <rect x="500" y="282" width="40" height="4" rx="2" fill="#94a3b8" opacity="0.5"/>
  <line x1="320" y1="140" x2="370" y2="175" stroke="#6366f1" stroke-width="2" opacity="0.3"/>
  <line x1="480" y1="140" x2="430" y2="175" stroke="#8b5cf6" stroke-width="2" opacity="0.3"/>
  <line x1="320" y1="260" x2="370" y2="225" stroke="#a855f7" stroke-width="2" opacity="0.3"/>
  <line x1="480" y1="260" x2="430" y2="225" stroke="#22c55e" stroke-width="2" opacity="0.3"/>
</svg>