<svg width="800" height="400" viewBox="0 0 800 400" fill="none" xmlns="http://www.w3.org/2000/svg">
  <rect width="800" height="400" fill="#f0f9ff"/>
  <circle cx="150" cy="100" r="200" fill="#0ea5e9" opacity="0.05"/>
  <circle cx="650" cy="300" r="180" fill="#6366f1" opacity="0.05"/>
  <rect x="200" y="100" width="400" height="60" rx="30" fill="white" stroke="#e2e8f0"/>
  <circle cx="235" cy="130" r="20" fill="#6366f1" opacity="0.1"/>
  <rect x="270" y="120" width="200" height="10" rx="5" fill="#94a3b8" opacity="0.4"/>
  <rect x="270" y="138" width="100" height="6" rx="3" fill="#94a3b8" opacity="0.3"/>
  <rect x="520" y="115" width="60" height="30" rx="15" fill="#6366f1"/>
  <rect x="150" y="180" width="500" height="140" rx="16" fill="white" stroke="#6366f1" stroke-width="2"/>
  <circle cx="220" cy="250" r="40" fill="#6366f1" opacity="0.1"/>
  <circle cx="220" cy="250" r="20" fill="#6366f1"/>
  <rect x="280" y="220" width="150" height="12" rx="6" fill="#6366f1"/>
  <rect x="280" y="245" width="340" height="8" rx="4" fill="#94a3b8" opacity="0.4"/>
  <rect x="280" y="265" width="320" height="8" rx="4" fill="#94a3b8" opacity="0.4"/>
  <rect x="280" y="285" width="280" height="8" rx="4" fill="#94a3b8" opacity="0.4"/>
  <rect x="200" y="340" width="120" height="40" rx="8" fill="#6366f1"/>
  <rect x="340" y="340" width="120" height="40" rx="8" fill="white" stroke="#6366f1" stroke-width="2"/>
</svg>