<svg width="800" height="400" viewBox="0 0 800 400" fill="none" xmlns="http://www.w3.org/2000/svg">
  <rect width="800" height="400" fill="#f0fdf4"/>
  <circle cx="700" cy="100" r="150" fill="#22c55e" opacity="0.06"/>
  <circle cx="100" cy="300" r="120" fill="#6366f1" opacity="0.05"/>
  <rect x="80" y="60" width="640" height="280" rx="24" fill="white" stroke="#e2e8f0"/>
  <rect x="120" y="100" width="250" height="12" rx="6" fill="#22c55e"/>
  <rect x="120" y="130" width="560" height="8" rx="4" fill="#94a3b8" opacity="0.4"/>
  <rect x="120" y="150" width="520" height="8" rx="4" fill="#94a3b8" opacity="0.4"/>
  <rect x="120" y="190" width="180" height="120" rx="12" fill="#f0fdf4" stroke="#22c55e" stroke-width="2"/>
  <rect x="145" y="220" width="60" height="60" rx="30" fill="#22c55e" opacity="0.2"/>
  <text x="163" y="260" font-family="Arial" font-size="24" fill="#22c55e" font-weight="bold">1</text>
  <rect x="320" y="190" width="180" height="120" rx="12" fill="#faf5ff" stroke="#8b5cf6" stroke-width="2"/>
  <rect x="345" y="220" width="60" height="60" rx="30" fill="#8b5cf6" opacity="0.2"/>
  <text x="363" y="260" font-family="Arial" font-size="24" fill="#8b5cf6" font-weight="bold">2</text>
  <rect x="520" y="190" width="180" height="120" rx="12" fill="#f8fafc" stroke="#6366f1" stroke-width="2"/>
  <rect x="545" y="220" width="60" height="60" rx="30" fill="#6366f1" opacity="0.2"/>
  <text x="563" y="260" font-family="Arial" font-size="24" fill="#6366f1" font-weight="bold">3</text>
</svg>