<svg width="800" height="400" viewBox="0 0 800 400" fill="none" xmlns="http://www.w3.org/2000/svg">
  <rect width="800" height="400" fill="#f0fdf4"/>
  <ellipse cx="400" cy="380" rx="350" ry="80" fill="#22c55e" opacity="0.05"/>
  <rect x="100" y="80" width="600" height="220" rx="24" fill="white" stroke="#22c55e" stroke-width="2"/>
  <rect x="150" y="120" width="220" height="16" rx="8" fill="#22c55e"/>
  <rect x="150" y="155" width="500" height="8" rx="4" fill="#94a3b8" opacity="0.4"/>
  <rect x="150" y="175" width="480" height="8" rx="4" fill="#94a3b8" opacity="0.4"/>
  <rect x="150" y="210" width="150" height="60" rx="10" fill="#f0fdf4" stroke="#22c55e"/>
  <rect x="175" y="230" width="100" height="20" rx="4" fill="#22c55e"/>
  <rect x="320" y="210" width="150" height="60" rx="10" fill="#f8fafc" stroke="#6366f1"/>
  <rect x="345" y="230" width="100" height="20" rx="4" fill="#6366f1"/>
  <rect x="490" y="210" width="150" height="60" rx="10" fill="#faf5ff" stroke="#8b5cf6"/>
  <rect x="515" y="230" width="100" height="20" rx="4" fill="#8b5cf6"/>
  <circle cx="700" cy="100" r="8" fill="#22c55e" opacity="0.4"/>
  <circle cx="730" cy="130" r="5" fill="#6366f1" opacity="0.3"/>
  <circle cx="680" cy="140" r="6" fill="#8b5cf6" opacity="0.3"/>
</svg>