<svg width="800" height="400" viewBox="0 0 800 400" fill="none" xmlns="http://www.w3.org/2000/svg">
  <rect width="800" height="400" fill="#fdf4ff"/>
  <rect x="0" y="350" width="800" height="50" fill="#6366f1" opacity="0.05"/>
  <rect x="0" y="0" width="800" height="50" fill="#8b5cf6" opacity="0.05"/>
  <rect x="150" y="80" width="500" height="240" rx="20" fill="white" stroke="#e2e8f0"/>
  <rect x="180" y="110" width="300" height="16" rx="8" fill="#6366f1"/>
  <rect x="180" y="145" width="440" height="10" rx="5" fill="#94a3b8" opacity="0.4"/>
  <rect x="180" y="165" width="420" height="10" rx="5" fill="#94a3b8" opacity="0.4"/>
  <rect x="180" y="185" width="400" height="10" rx="5" fill="#94a3b8" opacity="0.4"/>
  <rect x="180" y="220" width="200" height="60" rx="12" fill="#f8fafc" stroke="#e2e8f0"/>
  <rect x="200" y="240" width="80" height="8" rx="4" fill="#6366f1" opacity="0.6"/>
  <rect x="200" y="255" width="60" height="6" rx="3" fill="#94a3b8" opacity="0.4"/>
  <rect x="400" y="220" width="200" height="60" rx="12" fill="#6366f1" opacity="0.1" stroke="#6366f1"/>
  <rect x="420" y="240" width="80" height="8" rx="4" fill="#6366f1"/>
  <rect x="420" y="255" width="60" height="6" rx="3" fill="#6366f1" opacity="0.4"/>
  <circle cx="680" cy="120" r="6" fill="#8b5cf6" opacity="0.5"/>
  <circle cx="720" cy="160" r="4" fill="#6366f1" opacity="0.4"/>
  <circle cx="700" cy="200" r="8" fill="#a855f7" opacity="0.3"/>
</svg>