<svg width="800" height="400" viewBox="0 0 800 400" fill="none" xmlns="http://www.w3.org/2000/svg">
  <rect width="800" height="400" fill="#faf5ff"/>
  <circle cx="700" cy="80" r="160" fill="#8b5cf6" opacity="0.06"/>
  <circle cx="100" cy="350" r="120" fill="#6366f1" opacity="0.05"/>
  <rect x="100" y="100" width="240" height="160" rx="16" fill="white" filter="drop-shadow(0 4px 12px rgba(0,0,0,0.08))"/>
  <rect x="120" y="130" width="140" height="10" rx="5" fill="#6366f1" opacity="0.7"/>
  <rect x="120" y="155" width="200" height="8" rx="4" fill="#94a3b8" opacity="0.5"/>
  <rect x="120" y="175" width="180" height="8" rx="4" fill="#94a3b8" opacity="0.5"/>
  <rect x="120" y="195" width="160" height="8" rx="4" fill="#94a3b8" opacity="0.5"/>
  <circle cx="300" cy="220" r="20" fill="#8b5cf6"/>
  <path d="M291 220 L298 227 L311 214" stroke="white" stroke-width="3" stroke-linecap="round" stroke-linejoin="round"/>
  <rect x="400" y="140" width="260" height="180" rx="16" fill="white" stroke="#8b5cf6" stroke-width="2"/>
  <circle cx="440" cy="180" r="24" fill="#8b5cf6" opacity="0.15"/>
  <circle cx="440" cy="180" r="10" fill="#8b5cf6"/>
  <rect x="480" y="170" width="150" height="10" rx="5" fill="#8b5cf6" opacity="0.6"/>
  <rect x="420" y="210" width="220" height="8" rx="4" fill="#64748b" opacity="0.4"/>
  <rect x="420" y="230" width="200" height="8" rx="4" fill="#64748b" opacity="0.4"/>
  <rect x="420" y="250" width="180" height="8" rx="4" fill="#64748b" opacity="0.4"/>
  <text x="600" y="100" font-family="Georgia" font-size="48" fill="#8b5cf6" opacity="0.12">"</text>
</svg>