<svg width="800" height="400" viewBox="0 0 800 400" fill="none" xmlns="http://www.w3.org/2000/svg">
  <rect width="800" height="400" fill="#f8fafc"/>
  <circle cx="400" cy="200" r="160" stroke="#6366f1" stroke-width="2" stroke-dasharray="20 10" fill="none" opacity="0.15"/>
  <circle cx="400" cy="200" r="100" stroke="#8b5cf6" stroke-width="2" stroke-dasharray="15 8" fill="none" opacity="0.2"/>
  <circle cx="400" cy="200" r="50" fill="#6366f1" opacity="0.1"/>
  <rect x="330" y="160" width="140" height="80" rx="12" fill="white" stroke="#6366f1" stroke-width="2"/>
  <rect x="355" y="180" width="90" height="10" rx="5" fill="#6366f1"/>
  <rect x="365" y="200" width="70" height="6" rx="3" fill="#94a3b8" opacity="0.5"/>
  <rect x="360" y="215" width="80" height="6" rx="3" fill="#94a3b8" opacity="0.5"/>
  <circle cx="200" cy="120" r="40" fill="white" stroke="#8b5cf6" stroke-width="2"/>
  <rect x="180" y="110" width="40" height="8" rx="4" fill="#8b5cf6"/>
  <rect x="185" y="125" width="30" height="4" rx="2" fill="#94a3b8" opacity="0.5"/>
  <circle cx="600" cy="120" r="40" fill="white" stroke="#22c55e" stroke-width="2"/>
  <rect x="580" y="110" width="40" height="8" rx="4" fill="#22c55e"/>
  <rect x="585" y="125" width="30" height="4" rx="2" fill="#94a3b8" opacity="0.5"/>
  <circle cx="200" cy="280" r="40" fill="white" stroke="#f59e0b" stroke-width="2"/>
  <rect x="180" y="270" width="40" height="8" rx="4" fill="#f59e0b"/>
  <rect x="185" y="285" width="30" height="4" rx="2" fill="#94a3b8" opacity="0.5"/>
  <circle cx="600" cy="280" r="40" fill="white" stroke="#0ea5e9" stroke-width="2"/>
  <rect x="580" y="270" width="40" height="8" rx="4" fill="#0ea5e9"/>
  <rect x="585" y="285" width="30" height="4" rx="2" fill="#94a3b8" opacity="0.5"/>
  <line x1="240" y1="140" x2="330" y2="180" stroke="#6366f1" stroke-width="1.5" opacity="0.3"/>
  <line x1="560" y1="140" x2="470" y2="180" stroke="#6366f1" stroke-width="1.5" opacity="0.3"/>
  <line x1="240" y1="260" x2="330" y2="220" stroke="#6366f1" stroke-width="1.5" opacity="0.3"/>
  <line x1="560" y1="260" x2="470" y2="220" stroke="#6366f1" stroke-width="1.5" opacity="0.3"/>
</svg>