<svg width="800" height="400" viewBox="0 0 800 400" fill="none" xmlns="http://www.w3.org/2000/svg">
  <rect width="800" height="400" fill="#f8fafc"/>
  <rect x="600" y="-50" width="300" height="300" rx="40" fill="#6366f1" opacity="0.05" transform="rotate(15)"/>
  <rect x="-50" y="250" width="200" height="200" rx="30" fill="#8b5cf6" opacity="0.04" transform="rotate(-10)"/>
  <rect x="120" y="80" width="560" height="240" rx="24" fill="white" stroke="#e2e8f0" stroke-width="1"/>
  <rect x="160" y="120" width="200" height="12" rx="6" fill="#6366f1"/>
  <rect x="160" y="150" width="480" height="8" rx="4" fill="#94a3b8" opacity="0.5"/>
  <rect x="160" y="170" width="460" height="8" rx="4" fill="#94a3b8" opacity="0.5"/>
  <rect x="160" y="190" width="440" height="8" rx="4" fill="#94a3b8" opacity="0.5"/>
  <rect x="160" y="230" width="120" height="40" rx="8" fill="#6366f1"/>
  <rect x="300" y="230" width="120" height="40" rx="8" fill="white" stroke="#6366f1" stroke-width="2"/>
  <circle cx="640" cy="160" r="60" stroke="#8b5cf6" stroke-width="2" stroke-dasharray="8 4" fill="none" opacity="0.4"/>
  <circle cx="640" cy="160" r="30" fill="#8b5cf6" opacity="0.15"/>
  <path d="M630 160 L640 170 L655 150" stroke="#8b5cf6" stroke-width="3" stroke-linecap="round" stroke-linejoin="round"/>
</svg>