<svg width="800" height="400" viewBox="0 0 800 400" fill="none" xmlns="http://www.w3.org/2000/svg">
  <rect width="800" height="400" fill="#faf5ff"/>
  <rect x="0" y="0" width="400" height="400" fill="#8b5cf6" opacity="0.03"/>
  <rect x="150" y="80" width="500" height="240" rx="20" fill="white" stroke="#8b5cf6" stroke-width="2"/>
  <rect x="190" y="120" width="180" height="14" rx="7" fill="#8b5cf6"/>
  <rect x="190" y="150" width="420" height="8" rx="4" fill="#94a3b8" opacity="0.4"/>
  <rect x="190" y="170" width="380" height="8" rx="4" fill="#94a3b8" opacity="0.4"/>
  <rect x="190" y="210" width="140" height="80" rx="12" fill="#8b5cf6" opacity="0.1"/>
  <rect x="210" y="235" width="100" height="30" rx="6" fill="#8b5cf6"/>
  <rect x="360" y="210" width="140" height="80" rx="12" fill="#6366f1" opacity="0.1"/>
  <rect x="380" y="235" width="100" height="30" rx="6" fill="#6366f1"/>
  <rect x="530" y="210" width="90" height="80" rx="12" fill="#22c55e" opacity="0.1"/>
  <circle cx="575" cy="250" r="20" fill="#22c55e" opacity="0.3"/>
  <path d="M567 250 L573 256 L585 244" stroke="#22c55e" stroke-width="3" stroke-linecap="round"/>
</svg>