<svg width="800" height="400" viewBox="0 0 800 400" fill="none" xmlns="http://www.w3.org/2000/svg">
  <rect width="800" height="400" fill="#fafafa"/>
  <circle cx="100" cy="200" r="300" stroke="#6366f1" stroke-width="1" fill="none" opacity="0.1"/>
  <circle cx="100" cy="200" r="200" stroke="#8b5cf6" stroke-width="1" fill="none" opacity="0.1"/>
  <circle cx="100" cy="200" r="100" stroke="#a855f7" stroke-width="1" fill="none" opacity="0.1"/>
  <rect x="250" y="60" width="480" height="280" rx="20" fill="white" stroke="#e2e8f0"/>
  <rect x="290" y="100" width="60" height="60" rx="12" fill="#6366f1" opacity="0.1"/>
  <rect x="305" y="120" width="30" height="6" rx="3" fill="#6366f1"/>
  <rect x="300" y="132" width="40" height="4" rx="2" fill="#6366f1" opacity="0.5"/>
  <rect x="370" y="100" width="60" height="60" rx="12" fill="#8b5cf6" opacity="0.1"/>
  <rect x="385" y="120" width="30" height="6" rx="3" fill="#8b5cf6"/>
  <rect x="380" y="132" width="40" height="4" rx="2" fill="#8b5cf6" opacity="0.5"/>
  <rect x="450" y="100" width="60" height="60" rx="12" fill="#a855f7" opacity="0.1"/>
  <rect x="465" y="120" width="30" height="6" rx="3" fill="#a855f7"/>
  <rect x="460" y="132" width="40" height="4" rx="2" fill="#a855f7" opacity="0.5"/>
  <rect x="530" y="100" width="60" height="60" rx="12" fill="#22c55e" opacity="0.1"/>
  <rect x="545" y="120" width="30" height="6" rx="3" fill="#22c55e"/>
  <rect x="540" y="132" width="40" height="4" rx="2" fill="#22c55e" opacity="0.5"/>
  <rect x="610" y="100" width="60" height="60" rx="12" fill="#0ea5e9" opacity="0.1"/>
  <rect x="625" y="120" width="30" height="6" rx="3" fill="#0ea5e9"/>
  <rect x="620" y="132" width="40" height="4" rx="2" fill="#0ea5e9" opacity="0.5"/>
  <rect x="290" y="190" width="380" height="120" rx="12" fill="#f8fafc" stroke="#6366f1" stroke-width="2"/>
  <rect x="320" y="220" width="200" height="14" rx="7" fill="#6366f1"/>
  <rect x="320" y="250" width="320" height="8" rx="4" fill="#94a3b8" opacity="0.4"/>
  <rect x="320" y="270" width="280" height="8" rx="4" fill="#94a3b8" opacity="0.4"/>
</svg>